<?xml version="1.0" encoding="UTF-8"?>
<!DOCTYPE svg PUBLIC "-//W3C//DTD SVG 1.1//EN" "http://www.w3.org/Graphics/SVG/1.1/DTD/svg11.dtd">
<!-- Creator: CorelDRAW 2026 -->
<svg xmlns="http://www.w3.org/2000/svg" xml:space="preserve" width="237.793mm" height="237.793mm" version="1.1" style="shape-rendering:geometricPrecision; text-rendering:geometricPrecision; image-rendering:optimizeQuality; fill-rule:evenodd; clip-rule:evenodd"
viewBox="0 0 23779.26 23779.26"
 xmlns:xlink="http://www.w3.org/1999/xlink"
 xmlns:xodm="http://www.corel.com/coreldraw/odm/2003">
 <defs>
  <style type="text/css">
   <![CDATA[
    .str0 {stroke:#8C8275;stroke-width:577.14;stroke-miterlimit:22.9256;stroke-dasharray:1154.280000 1731.420000}
    .fil1 {fill:none}
    .fil2 {fill:#2E4237}
    .fil0 {fill:#F4F0EA}
   ]]>
  </style>
 </defs>
 <g id="Layer_x0020_1">
  <metadata id="CorelCorpID_0Corel-Layer"/>
  <g id="_2483970905888">
   <rect class="fil0" x="2540" y="2540" width="18699.26" height="18699.26" rx="1038.85" ry="1038.85"/>
   <circle class="fil1 str0" cx="11889.63" cy="11889.63" r="7744.89"/>
   <g>
    <g>
     <path class="fil2" d="M11721.51 11067.67c15.56,88.55 264.97,467.63 326.67,572.57 121,205.75 213.45,387.35 331.01,576.91l496.96 854.2c157.61,251.12 139.22,208.78 -614.33,209.09l-333.23 -0.74c-27.25,118.01 185.21,426.88 243.79,540.7 89.91,174.63 196.52,355.63 290.78,528.26 91.98,168.48 205.08,323.58 298.06,499.55 167.78,317.42 129.52,295.14 817.44,277.86 460.8,-11.58 1393.8,22.32 1500.53,-21.64 15.42,-56.7 2.69,-59.73 -23.19,-99.64l-1398.68 -2306.46c-85.71,-135.78 -153.8,-254.56 -246.18,-397.28 -407.47,-629.62 -357.3,-399.8 347.54,-1223.88 114.34,-133.67 228.41,-260.75 348.47,-399.95l1404.79 -1612.61c78.34,-91.08 313.92,-321.92 353.68,-419.9l-2013.16 0.35c-160.35,0 -224.76,125.96 -318.7,239.96 -233.69,283.56 -1698.75,2011.25 -1812.25,2182.65z"/>
     <path class="fil2" d="M10735.04 8644.82c321.43,-2.19 265.89,16.4 385.44,231.33l440.36 756.75c59.18,114.03 408.17,712.93 385.47,761.53l-1038.94 55.37c-33.71,50.18 101.17,218.97 134.69,277.71l517.56 878.35c112.87,203.28 226.36,395.41 341.01,589.12 259.43,438.27 255.43,393.89 59.63,620.93 -335.79,389.39 -664.57,837.35 -975.47,1195.91l-500.55 583.7c-225.74,266.17 -365.26,541.6 -550.66,530.55 -451.4,-26.92 -1505.12,-16.43 -2019.94,-20.23 5.94,-81.27 1244.28,-1459.62 1404.74,-1631.26l880.65 -1029.37c60.87,-70.46 119.56,-122.19 186.58,-199.34 99.8,-114.87 257.08,-281.91 341.33,-410.58 -20.57,-153.45 -373.74,-639.94 -461.26,-782.3 -163.69,-266.21 -295.68,-517.25 -453.13,-786.94 -156.42,-267.9 -326.17,-508 -474.77,-767.63 -82.88,-144.75 -145.1,-260.3 -225.39,-394.49 -57.17,-95.52 -159.39,-318.58 -234.15,-356.91 -74.77,-38.33 1870.44,-92.95 1856.8,-102.2z"/>
    </g>
   </g>
  </g>
 </g>
</svg>
